<svg width="360" height="310" viewBox="0 0 360 310" fill="none" xmlns="http://www.w3.org/2000/svg">
<g clip-path="url(#clip0_134_1006)">
<path d="M231.446 302.615C232.254 303.047 233.175 303.22 234.084 303.111C234.994 303.002 235.848 302.615 236.53 302.004C237.213 301.392 237.691 300.586 237.901 299.693C238.11 298.801 238.04 297.866 237.701 297.014C237.791 296.561 237.857 296.236 237.948 295.783C239.696 294.15 241.891 293.077 244.252 292.701C246.613 292.325 249.033 292.663 251.201 293.673C253.369 294.682 255.186 296.316 256.42 298.365C257.654 300.415 258.248 302.786 258.126 305.176C257.573 318.652 258.238 333.194 249.287 344.058C290.138 310.652 308.765 253.743 296.289 202.558C290.168 194.022 287.312 182.682 290.058 172.406C293.502 175.759 300.218 174.858 299.191 169.054C298.641 166.76 298.071 164.473 297.521 162.179C321.049 152.991 327.192 188.001 299.322 202.256C301.583 211.987 302.821 221.928 303.016 231.917C306.162 222.91 311.401 214.78 318.299 208.194C324.979 202.175 333.811 198.636 342.028 194.599C352.026 189.672 363.123 199.439 359.186 209.865C352.53 209.013 347.821 216.974 353.861 221.253C343.252 239.082 322.911 250.414 302.245 250.594C300.155 270.938 293.756 290.603 283.474 308.277C296.677 288.187 322.226 293.971 342.418 293.115C343.758 292.946 345.118 293.171 346.332 293.762C347.546 294.353 348.562 295.285 349.256 296.445C349.95 297.604 350.292 298.94 350.24 300.29C350.188 301.641 349.744 302.947 348.963 304.049C346.307 303.893 343.642 304.001 341.007 304.373C339.768 304.557 338.615 305.119 337.708 305.984C336.801 306.849 336.184 307.973 335.94 309.203C335.697 310.433 335.839 311.708 336.348 312.854C336.857 313.999 337.708 314.959 338.783 315.602C321.071 331.852 293.624 335.345 272.083 324.976C265.715 333.004 258.529 340.348 250.643 346.89L218.618 331.613C218.673 331.202 218.745 330.785 218.811 330.38C221.687 331.98 224.747 333.222 227.924 334.078C224.508 321.045 220.701 313.411 231.444 302.615H231.446Z" fill="#F2F2F2"/>
<path d="M174.857 271.783C174.271 272.488 173.483 272.996 172.6 273.238C171.716 273.48 170.78 273.445 169.917 273.136C169.054 272.828 168.307 272.261 167.777 271.514C167.247 270.766 166.959 269.874 166.953 268.957C166.698 268.572 166.515 268.295 166.259 267.91C164.025 267.058 161.588 266.892 159.259 267.436C156.931 267.979 154.818 269.205 153.19 270.958C151.563 272.711 150.496 274.91 150.125 277.274C149.755 279.638 150.099 282.059 151.112 284.226C156.704 296.498 161.569 310.216 173.954 316.899C123.529 301.381 84.828 255.707 77.089 203.594C79.5407 193.378 77.911 181.798 71.4954 173.317C69.5688 177.723 63.0101 179.423 61.7727 173.66C61.418 171.328 61.0836 168.995 60.7287 166.663C35.4749 167.035 42.9821 201.779 74.167 204.459C75.741 214.325 78.3412 223.999 81.9253 233.324C75.6165 226.17 67.7006 220.617 58.829 217.122C50.3744 214.07 40.8607 214.126 31.729 213.488C20.6123 212.7 14.0168 225.934 21.5926 234.104C27.4354 230.802 34.798 236.398 30.8169 242.64C47.3618 255.148 70.4715 257.965 89.6794 250.33C99.2832 268.382 112.622 284.179 128.805 296.667C109.006 283.044 87.5236 298.046 68.5009 304.875C67.1964 305.224 66.0217 305.946 65.1201 306.952C64.2184 307.958 63.6288 309.204 63.423 310.54C63.2173 311.875 63.4044 313.242 63.9615 314.473C64.5187 315.704 65.4217 316.746 66.5605 317.472C68.9617 316.325 71.4709 315.419 74.0511 314.768C75.2681 314.471 76.5473 314.557 77.7133 315.015C78.8794 315.474 79.8752 316.282 80.5643 317.329C81.2534 318.376 81.602 319.611 81.5623 320.864C81.5227 322.117 81.0967 323.327 80.3429 324.329C102.872 332.692 129.608 325.567 145.649 307.832C154.573 312.863 163.996 316.952 173.765 320.034L197.666 293.796C197.461 293.437 197.237 293.078 197.023 292.727C194.963 295.295 192.597 297.601 189.977 299.593C188.229 286.232 188.877 277.725 174.858 271.783L174.857 271.783Z" fill="#F2F2F2"/>
<path d="M181.008 160.915C181.919 160.823 182.78 160.453 183.474 159.855C184.168 159.256 184.662 158.459 184.888 157.571C185.114 156.682 185.062 155.746 184.738 154.888C184.415 154.03 183.836 153.293 183.08 152.776C182.903 152.349 182.776 152.042 182.599 151.616C183.14 149.285 184.365 147.169 186.115 145.54C187.866 143.91 190.063 142.841 192.425 142.469C194.787 142.097 197.206 142.44 199.372 143.453C201.538 144.466 203.352 146.103 204.583 148.154C211.632 159.65 220.286 171.351 218.908 185.364C234.208 134.839 217.965 77.203 179.091 41.6732C169.254 38.0025 160.565 30.182 157.119 20.1197C161.847 20.981 166.92 16.4864 162.834 12.2406C161.099 10.6435 159.352 9.06287 157.617 7.46568C172.03 -13.2898 196.635 12.3465 181.44 39.7308C188.739 46.5475 195.305 54.109 201.033 62.2922C198.627 53.0597 198.445 43.3874 200.503 34.0709C202.695 25.3479 208.055 17.4819 212.626 9.54533C218.182 -0.123017 232.835 1.7932 235.376 12.645C229.376 15.6512 229.902 24.8882 237.299 25.0697C238.426 45.7896 227.854 66.5465 210.798 78.2272C220.397 96.2818 226.041 116.177 227.353 136.586C227.12 112.541 251.553 103.087 267.838 91.1105C268.856 90.2227 270.11 89.6506 271.447 89.4639C272.785 89.2772 274.147 89.484 275.369 90.0591C276.591 90.6343 277.619 91.5528 278.329 92.7028C279.038 93.8527 279.397 95.1843 279.363 96.5352C277.071 97.8878 274.919 99.4649 272.938 101.243C272.012 102.087 271.369 103.197 271.098 104.421C270.827 105.645 270.94 106.923 271.423 108.08C271.906 109.237 272.735 110.216 273.796 110.883C274.857 111.55 276.098 111.872 277.349 111.806C271.698 135.179 250.86 153.392 227.201 156.804C226.387 167.022 224.513 177.127 221.612 186.958L186.515 192.145C186.331 191.773 186.159 191.387 185.988 191.014C189.266 190.738 192.499 190.061 195.614 188.999C185.516 180.086 178.102 175.872 181.007 160.916L181.008 160.915Z" fill="#F2F2F2"/>
<path d="M216.307 149.654C200.328 149.654 191.662 147.7 188.635 143.529C185.964 139.849 187.755 134.993 189.828 129.371C191.318 125.329 193.007 120.749 193.007 116.216C193.007 94.1682 204.178 82.9886 226.21 82.9886C237.171 82.9886 248.941 88.816 257.694 98.5771C265.651 107.451 269.615 118.071 268.57 127.715C267.712 135.624 264.034 140.825 256.993 144.084L256.581 144.275L256.464 143.836C255.856 141.566 254.827 139.431 253.431 137.541C253.295 140.507 252.548 143.413 251.236 146.076L251.161 146.228L250.999 146.275C243.03 148.546 233.573 149.161 226.224 149.443C222.647 149.583 219.342 149.653 216.307 149.654Z" fill="#2F2E41"/>
<path d="M220.662 180.373C220.05 178.572 219.017 176.942 217.649 175.62C216.282 174.298 214.619 173.322 212.798 172.772C210.978 172.222 209.053 172.114 207.182 172.458C205.312 172.801 203.551 173.586 202.044 174.747L149.487 206.193L133.041 166.035C134.43 163.995 135.138 161.568 135.064 159.101C134.989 156.633 134.136 154.253 132.626 152.301C131.116 150.349 129.027 148.926 126.659 148.236C124.291 147.545 121.765 147.623 119.444 148.458C117.122 149.293 115.125 150.842 113.738 152.884C112.351 154.925 111.646 157.353 111.723 159.82C111.8 162.288 112.657 164.667 114.169 166.617C115.681 168.567 117.771 169.988 120.14 170.676C121.154 182.256 126.787 234.015 146.385 232.134C162.857 230.552 203.765 203.288 216.471 193.835C218.504 192.324 220.005 190.207 220.758 187.788C221.511 185.368 221.478 182.772 220.662 180.373Z" fill="#FFB6B6"/>
<path d="M260.268 408.771H214.524L206.853 370.816L204.365 408.771H161.873C161.889 378.964 163.44 349.178 166.521 319.531L167.048 317.736L167.88 314.864L168.406 313.061L177.199 282.843L177.894 280.444H230.843C233.89 283.309 236.701 286.415 239.247 289.733C240.109 290.833 241.01 292.024 241.934 293.308C242.575 294.217 243.239 295.171 243.903 296.172C249.803 304.962 254.213 314.666 256.955 324.893V324.9C257.421 326.65 257.833 328.44 258.192 330.27V330.278C258.512 331.905 258.795 333.555 259.016 335.243C259.184 336.473 259.329 337.718 259.436 338.978C260.072 345.961 259.849 352.995 258.772 359.923L260.268 408.771Z" fill="#2F2E41"/>
<path d="M17.7344 61.7088C20.7051 60.558 22.4649 57.9485 21.6649 55.8804C20.8649 53.8123 17.8082 53.0687 14.8374 54.2195C11.8667 55.3703 10.107 57.9798 10.907 60.0479C11.7069 62.116 14.7637 62.8596 17.7344 61.7088Z" fill="#E6E6E6"/>
<path d="M55.1377 56.907C58.1084 55.7562 59.8682 53.1468 59.0682 51.0787C58.2682 49.0105 55.2115 48.2669 52.2408 49.4177C49.27 50.5686 47.5103 53.178 48.3103 55.2461C49.1103 57.3142 52.167 58.0578 55.1377 56.907Z" fill="#3F3D56"/>
<path d="M14.4898 93.6441C17.4605 92.4933 19.2202 89.8838 18.4203 87.8157C17.6203 85.7476 14.5635 85.004 11.5928 86.1548C8.62212 87.3056 6.86237 89.9151 7.66235 91.9832C8.46232 94.0513 11.5191 94.7949 14.4898 93.6441Z" fill="#FF6584"/>
<path d="M3.66987 107.731C5.03274 107.408 5.76167 105.557 5.29796 103.596C4.83425 101.636 3.3535 100.308 1.99063 100.631C0.627768 100.954 -0.10114 102.805 0.362567 104.765C0.826275 106.726 2.307 108.054 3.66987 107.731Z" fill="#E6E6E6"/>
<path d="M3.44673 131.58C4.80959 131.257 5.5385 129.406 5.07479 127.446C4.61108 125.485 3.13036 124.158 1.76749 124.48C0.404623 124.803 -0.324285 126.654 0.139423 128.615C0.60313 130.575 2.08386 131.903 3.44673 131.58Z" fill="#3F3D56"/>
<path d="M36.2753 82.1826C37.6382 81.8598 38.3671 80.0087 37.9034 78.0481C37.4397 76.0876 35.959 74.7599 34.5961 75.0827C33.2332 75.4055 32.5043 77.2566 32.968 79.2172C33.4317 81.1777 34.9125 82.5054 36.2753 82.1826Z" fill="#E6E6E6"/>
<path d="M16.5756 77.3951C17.9385 77.0723 18.6674 75.2212 18.2037 73.2607C17.74 71.3001 16.2593 69.9724 14.8964 70.2952C13.5335 70.6181 12.8046 72.4691 13.2683 74.4297C13.732 76.3903 15.2128 77.7179 16.5756 77.3951Z" fill="#FF6584"/>
<path d="M37.4555 55.4338C38.8184 55.111 39.5473 53.2599 39.0836 51.2994C38.6199 49.3388 37.1391 48.0111 35.7763 48.3339C34.4134 48.6568 33.6845 50.5078 34.1482 52.4684C34.6119 54.429 36.0926 55.7566 37.4555 55.4338Z" fill="#3F3D56"/>
<path d="M47.1664 220.5C48.6028 218.812 47.8008 215.768 45.375 213.701C42.9493 211.635 39.8184 211.329 38.382 213.018C36.9457 214.706 37.7477 217.75 40.1734 219.817C42.5992 221.883 45.73 222.189 47.1664 220.5Z" fill="#E6E6E6"/>
<path d="M25.1376 189.871C26.574 188.182 25.772 185.138 23.3462 183.072C20.9205 181.005 17.7896 180.699 16.3532 182.388C14.9169 184.077 15.7189 187.121 18.1446 189.187C20.5704 191.253 23.7012 191.559 25.1376 189.871Z" fill="#3F3D56"/>
<path d="M76.7733 208.149C78.2097 206.46 77.4077 203.416 74.982 201.35C72.5562 199.284 69.4254 198.978 67.989 200.666C66.5526 202.355 67.3546 205.399 69.7804 207.465C72.2061 209.532 75.337 209.838 76.7733 208.149Z" fill="#FF6584"/>
<path d="M91.4811 208.487C92.9831 207.146 93.4447 205.211 92.5121 204.165C91.5795 203.119 89.6059 203.359 88.1039 204.701C86.6019 206.042 86.1403 207.978 87.0729 209.023C88.0055 210.069 89.9791 209.829 91.4811 208.487Z" fill="#E6E6E6"/>
<path d="M112.544 197.327C114.046 195.986 114.508 194.051 113.575 193.005C112.642 191.959 110.669 192.199 109.167 193.541C107.665 194.882 107.203 196.818 108.136 197.863C109.068 198.909 111.042 198.669 112.544 197.327Z" fill="#3F3D56"/>
<path d="M53.5065 191.959C55.0085 190.617 55.4701 188.682 54.5375 187.636C53.6049 186.591 51.6313 186.83 50.1293 188.172C48.6273 189.514 48.1657 191.449 49.0983 192.494C50.0309 193.54 52.0045 193.3 53.5065 191.959Z" fill="#E6E6E6"/>
<path d="M58.6798 211.574C60.1818 210.232 60.6434 208.297 59.7108 207.252C58.7782 206.206 56.8046 206.446 55.3026 207.788C53.8006 209.129 53.339 211.064 54.2716 212.11C55.2042 213.156 57.1778 212.916 58.6798 211.574Z" fill="#FF6584"/>
<path d="M29.4401 203.656C30.9421 202.315 31.4036 200.379 30.471 199.334C29.5385 198.288 27.5649 198.528 26.0629 199.87C24.5609 201.211 24.0993 203.146 25.0319 204.192C25.9645 205.238 27.9381 204.998 29.4401 203.656Z" fill="#3F3D56"/>
<path d="M195.158 24.0526C197.146 23.0739 197.619 19.9615 196.213 17.1008C194.807 14.2402 192.055 12.7146 190.067 13.6933C188.078 14.672 187.606 17.7843 189.012 20.645C190.418 23.5056 193.169 25.0313 195.158 24.0526Z" fill="#E6E6E6"/>
<path d="M203.214 60.9194C205.203 59.9407 205.675 56.8283 204.27 53.9677C202.864 51.107 200.112 49.5814 198.123 50.5601C196.135 51.5388 195.663 54.6512 197.068 57.5118C198.474 60.3725 201.226 61.8981 203.214 60.9194Z" fill="#3F3D56"/>
<path d="M163.085 23.6169C165.073 22.6382 165.546 19.5258 164.14 16.6652C162.734 13.8045 159.982 12.2789 157.994 13.2576C156.005 14.2363 155.533 17.3487 156.939 20.2093C158.344 23.07 161.096 24.5956 163.085 23.6169Z" fill="#FF6584"/>
<path d="M146.226 11.9174C148.137 11.2833 149.329 9.69088 148.888 8.36053C148.447 7.03019 146.541 6.46571 144.63 7.09975C142.719 7.7338 141.527 9.32627 141.968 10.6566C142.409 11.987 144.315 12.5514 146.226 11.9174Z" fill="#E6E6E6"/>
<path d="M122.466 13.7852C124.377 13.1511 125.569 11.5587 125.128 10.2283C124.688 8.89797 122.781 8.33352 120.87 8.96757C118.959 9.60162 117.767 11.1941 118.208 12.5244C118.649 13.8547 120.555 14.4192 122.466 13.7852Z" fill="#3F3D56"/>
<path d="M174.515 42.1832C176.426 41.5492 177.617 39.9567 177.177 38.6264C176.736 37.296 174.83 36.7316 172.919 37.3656C171.008 37.9997 169.816 39.5921 170.257 40.9225C170.697 42.2528 172.604 42.8173 174.515 42.1832Z" fill="#E6E6E6"/>
<path d="M177.553 22.1254C179.464 21.4913 180.656 19.8989 180.215 18.5685C179.775 17.2382 177.868 16.6737 175.957 17.3078C174.046 17.9418 172.854 19.5343 173.295 20.8646C173.736 22.195 175.642 22.7594 177.553 22.1254Z" fill="#FF6584"/>
<path d="M201.244 41.0164C203.155 40.3823 204.346 38.7899 203.906 37.4595C203.465 36.1292 201.559 35.5647 199.648 36.1988C197.737 36.8328 196.545 38.4253 196.986 39.7556C197.426 41.0859 199.333 41.6504 201.244 41.0164Z" fill="#3F3D56"/>
<path d="M208.579 155.792L233.779 154.493L245.485 173.002C245.485 173.002 267.508 176.686 265.981 202.657C264.455 228.628 239.185 251.418 239.185 251.418L240.266 264.942L238.39 270.307L238.63 273.319L241.189 276.509L241.453 279.808L239.185 285.027L242.269 290.025L177.44 283.74L175.069 275.097L178.528 270.457L176.596 264.403L179.5 258.581L181.014 240.088C181.014 240.088 164.448 215.18 183.465 196.421L191.098 183.435L199.639 173.008L208.579 155.792Z" fill="#5C8EE5"/>
<path d="M221.107 150.565C235.855 150.565 247.81 138.601 247.81 123.843C247.81 109.084 235.855 97.1198 221.107 97.1198C206.36 97.1198 194.404 109.084 194.404 123.843C194.404 138.601 206.36 150.565 221.107 150.565Z" fill="#FFB6B6"/>
<path d="M217.532 122.223C215.231 122.223 212.931 122.158 210.632 122.028L210.222 122.005L210.276 121.597C210.614 119.046 210.424 116.453 209.716 113.979C208.514 116.796 206.725 119.324 204.47 121.394L204.342 121.511L204.171 121.492C197.928 120.809 191.743 119.68 185.661 118.114L185.428 118.054L185.381 117.818C184.927 115.586 184.692 113.315 184.679 111.037C184.679 103.921 187.257 97.9318 191.939 94.1726C197.034 90.0807 204.338 88.8223 212.512 90.6271H238.651C241.525 90.6304 244.28 91.7742 246.312 93.8077C248.344 95.8411 249.487 98.5982 249.49 101.474V118.039L249.205 118.113C238.866 120.833 228.222 122.214 217.532 122.223Z" fill="#2F2E41"/>
<path d="M35.3255 92.4984C34.1554 92.9267 33.2028 93.8019 32.6767 94.9322C32.1507 96.0625 32.0941 97.3554 32.5194 98.5274L60.7178 175.958C61.1457 177.129 62.0203 178.082 63.1497 178.609C64.2791 179.135 65.5711 179.192 66.7422 178.767L176.185 138.851C177.355 138.423 178.307 137.548 178.833 136.418C179.36 135.287 179.416 133.994 178.991 132.822L150.792 55.3916C150.364 54.2206 149.49 53.2672 148.36 52.7407C147.231 52.2142 145.939 52.1576 144.768 52.5832L35.3255 92.4984Z" fill="#CCCCCC"/>
<path d="M135.452 149.438L68.462 173.87C67.2015 174.328 65.811 174.267 64.5954 173.701C63.3799 173.134 62.4385 172.108 61.978 170.848L36.4023 100.619C35.9446 99.3573 36.0054 97.9658 36.5716 96.7493C37.1378 95.5328 38.1631 94.5907 39.4225 94.1298L142.681 56.4702C143.941 56.0121 145.332 56.073 146.547 56.6397C147.763 57.2063 148.704 58.2324 149.165 59.4927L161.523 93.4267C165.474 104.315 164.948 116.327 160.061 126.827C155.173 137.328 146.323 145.459 135.452 149.438Z" fill="white"/>
<path d="M87.2493 98.7036L71.3302 104.509C71.1306 104.582 70.9186 104.615 70.7063 104.606C70.494 104.597 70.2856 104.546 70.093 104.456C69.9004 104.366 69.7274 104.239 69.5838 104.083C69.4401 103.926 69.3288 103.742 69.256 103.543C69.1833 103.343 69.1505 103.131 69.1597 102.918C69.1689 102.706 69.2198 102.497 69.3095 102.304C69.3992 102.112 69.526 101.939 69.6826 101.795C69.8392 101.651 70.0225 101.54 70.2222 101.467L86.1413 95.6609C86.5445 95.5138 86.9895 95.5331 87.3785 95.7144C87.7675 95.8957 88.0686 96.2243 88.2155 96.6278C88.3625 97.0312 88.3432 97.4766 88.162 97.8659C87.9809 98.2552 87.6526 98.5565 87.2494 98.7036H87.2493Z" fill="#5C8EE5"/>
<path d="M125.201 91.9109L73.5963 110.732C73.3966 110.805 73.1844 110.838 72.972 110.829C72.7595 110.82 72.5509 110.769 72.3581 110.679C72.1653 110.59 71.992 110.463 71.8482 110.306C71.7045 110.149 71.593 109.966 71.5202 109.766C71.4474 109.566 71.4146 109.353 71.4239 109.141C71.4331 108.928 71.4842 108.719 71.5741 108.527C71.664 108.334 71.791 108.161 71.9479 108.017C72.1047 107.873 72.2883 107.762 72.4882 107.689L124.093 88.8683C124.292 88.7955 124.504 88.7627 124.717 88.7719C124.929 88.7811 125.137 88.832 125.33 88.9218C125.523 89.0116 125.696 89.1385 125.839 89.2952C125.983 89.4519 126.094 89.6354 126.167 89.8352C126.24 90.0349 126.272 90.2471 126.263 90.4596C126.254 90.672 126.203 90.8805 126.114 91.0733C126.024 91.266 125.897 91.4392 125.74 91.583C125.584 91.7267 125.4 91.8381 125.201 91.9109Z" fill="#5C8EE5"/>
<path d="M127.802 99.0532L76.1975 117.874C75.9978 117.947 75.7858 117.98 75.5735 117.97C75.3612 117.961 75.1528 117.91 74.9602 117.821C74.7676 117.731 74.5946 117.604 74.4509 117.447C74.3073 117.29 74.196 117.107 74.1232 116.907C74.0504 116.707 74.0177 116.495 74.0269 116.283C74.0361 116.07 74.087 115.862 74.1767 115.669C74.2664 115.476 74.3932 115.303 74.5498 115.159C74.7064 115.016 74.8897 114.904 75.0894 114.831L126.694 96.0105C127.097 95.8641 127.542 95.8838 127.93 96.0652C128.319 96.2466 128.619 96.5749 128.766 96.9781C128.913 97.3813 128.894 97.8263 128.713 98.2153C128.532 98.6044 128.205 98.9058 127.802 99.0532Z" fill="#5C8EE5"/>
<path d="M130.403 106.196L78.7984 125.017C78.5987 125.09 78.3866 125.123 78.1741 125.114C77.9617 125.105 77.7531 125.054 77.5602 124.964C77.3674 124.874 77.1942 124.747 77.0504 124.591C76.9066 124.434 76.7951 124.25 76.7223 124.05C76.6495 123.85 76.6168 123.638 76.626 123.425C76.6353 123.213 76.6863 123.004 76.7762 122.811C76.8661 122.618 76.9932 122.445 77.15 122.301C77.3069 122.158 77.4905 122.046 77.6904 121.974L129.295 103.153C129.495 103.08 129.707 103.047 129.919 103.057C130.131 103.066 130.34 103.117 130.532 103.206C130.725 103.296 130.898 103.423 131.041 103.58C131.185 103.737 131.296 103.92 131.369 104.12C131.442 104.32 131.475 104.532 131.465 104.744C131.456 104.957 131.405 105.165 131.316 105.358C131.226 105.551 131.099 105.724 130.943 105.868C130.786 106.011 130.603 106.123 130.403 106.196Z" fill="#5C8EE5"/>
<path d="M133.004 113.338L81.3991 132.159C80.9959 132.306 80.5509 132.287 80.1619 132.105C79.7729 131.924 79.4718 131.596 79.3249 131.192C79.1779 130.789 79.1972 130.343 79.3784 129.954C79.5596 129.565 79.8878 129.263 80.291 129.116L131.896 110.295C132.095 110.223 132.307 110.19 132.52 110.199C132.732 110.208 132.94 110.259 133.133 110.349C133.325 110.439 133.499 110.566 133.642 110.722C133.786 110.879 133.897 111.063 133.97 111.262C134.043 111.462 134.075 111.674 134.066 111.887C134.057 112.099 134.006 112.308 133.916 112.5C133.827 112.693 133.7 112.866 133.543 113.01C133.387 113.154 133.203 113.265 133.004 113.338H133.004Z" fill="#5C8EE5"/>
<path d="M296.745 133.174L268.491 200.836C267.286 203.699 265.004 205.973 262.138 207.167C259.271 208.361 256.051 208.38 253.171 207.219C251.682 206.618 250.33 205.72 249.198 204.58C248.067 203.439 247.179 202.08 246.589 200.585C246 199.09 245.721 197.49 245.769 195.884C245.817 194.277 246.192 192.697 246.87 191.24L278.372 121.857L295.738 78.8889C294.238 77.3912 293.234 75.4674 292.864 73.379C292.494 71.2906 292.775 69.1388 293.67 67.216C294.565 65.2932 296.029 63.6926 297.864 62.6316C299.699 61.5707 301.816 61.1008 303.928 61.2859C306.039 61.4709 308.042 62.3019 309.665 63.666C311.288 65.03 312.452 66.861 312.999 68.9101C313.546 70.9593 313.449 73.1272 312.722 75.1195C311.995 77.1117 310.672 78.8316 308.934 80.0455L296.745 133.174Z" fill="#FFB6B6"/>
</g>
<defs>
<clipPath id="clip0_134_1006">
<rect width="360" height="310" fill="white"/>
</clipPath>
</defs>
</svg>
