<svg width="45" height="45" viewBox="0 0 45 45" fill="none" xmlns="http://www.w3.org/2000/svg">
<path fill-rule="evenodd" clip-rule="evenodd" d="M22.5219 39.2531C20.2287 39.2531 18.0411 38.8018 16.0429 37.983V31.7927V22.3281C16.0429 18.7797 18.9197 15.9029 22.4681 15.9029C23.9771 15.9029 25.3644 16.4231 26.4608 17.2939V11.606C25.2178 11.1428 23.8725 10.8897 22.4681 10.8897C15.4899 10.8897 11 16.3993 11 23.0872V40.8904C14.3506 42.9553 18.2971 44.1466 22.5219 44.1466C34.668 44.1466 44.5146 34.3 44.5146 22.1538C44.5146 15.2173 41.3033 9.03097 36.2864 5V12.0069C38.3822 14.8453 39.6211 18.3548 39.6211 22.1538C39.6211 31.5974 31.9654 39.2531 22.5219 39.2531Z" fill="#5C8EE6"/>
<path fill-rule="evenodd" clip-rule="evenodd" d="M21.9928 4.89351C24.2857 4.89351 26.4733 5.34481 28.4715 6.16361V12.3539V21.8184C28.4715 25.3669 25.5949 28.2436 22.0465 28.2436C20.5375 28.2436 19.15 27.7235 18.0536 26.8527V32.5405C19.2966 33.0038 20.6421 33.2569 22.0465 33.2569C29.0248 33.2569 33.5146 27.7473 33.5146 21.0594V3.25613C30.1638 1.19127 26.2173 0 21.9928 0C9.84658 0 0 9.84658 0 21.9928C0 28.9293 3.21131 35.1156 8.22825 39.1466V32.1397C6.13243 29.3013 4.89351 25.7918 4.89351 21.9928C4.89351 12.5492 12.5492 4.89351 21.9928 4.89351V4.89351Z" fill="white"/>
</svg>
