<svg xmlns="http://www.w3.org/2000/svg" width="140" height="121" fill="#828a99" xmlns:v="https://vecta.io/nano"><path d="M98.028 26.416H84.453l-3.451-5.544-6.675-10.351-15.838 24.606-7.297 11.426-5.939 9.277-7.297 11.37-5.996 9.277-7.297 11.426h-13.52l7.297-11.426 5.94-9.277 7.297-11.37 5.939-9.277L67.539 0h13.576l6.618 10.352 6.788 10.521 3.507 5.544zm39.483 61.487H37.22l8.089-11.426 5.939-9.277 7.297-11.37 5.996-9.277 7.297-11.426h31.847l7.297 11.426H78.061l-5.939 9.277-7.297 11.37-5.939 9.277h57.753L110.7 67.2H76.59l7.58-11.37h32.751l7.354 11.37 5.939 9.277 7.297 11.426zM19.855 120.089l-1.64-2.942H9.22l2.206-4.129h4.638l-3.281-6.165-7.071 13.236H0l9.842-17.818c.509-.962 1.301-1.414 2.319-1.414h1.188c.962 0 1.753.452 2.263 1.414l9.842 17.818h-5.6zm15.046 0c-1.471 0-2.828-.226-4.073-.679a9.35 9.35 0 0 1-3.224-1.98c-.905-.792-1.64-1.81-2.149-2.998s-.735-2.489-.735-3.959c0-1.414.226-2.772.735-3.903a9.06 9.06 0 0 1 2.149-3.055c.905-.848 1.98-1.527 3.224-1.98s2.602-.678 4.073-.678h10.295v4.921H34.562a4.99 4.99 0 0 0-1.867.339c-.622.226-1.075.566-1.527.962-.396.452-.735.905-.962 1.527a4.99 4.99 0 0 0-.339 1.867 5.51 5.51 0 0 0 .339 1.923c.226.566.566 1.018.962 1.414a3.91 3.91 0 0 0 1.527.962 4.99 4.99 0 0 0 1.867.339h5.713v-2.602h-6.222v-4.129h11.143v11.709H34.901zm27.604 0v-14.311h-7.127v-4.921h19.345v4.921h-7.071v14.311h-5.147zm21.382-7.58v-4.129h11.37v4.129h-11.37zm-6.901 7.58v-19.232h18.44v4.921H82.133v9.333h13.349v4.978H76.986zm31.111 0c-1.527 0-2.885-.226-4.129-.679s-2.32-1.131-3.168-1.98a8.31 8.31 0 0 1-2.15-2.998c-.509-1.188-.792-2.489-.792-3.959 0-1.414.283-2.772.792-3.903a9.06 9.06 0 0 1 2.15-3.055c.848-.848 1.923-1.527 3.168-1.98s2.602-.678 4.129-.678h9.39v4.921h-9.786a4.99 4.99 0 0 0-1.867.339c-.565.226-1.074.566-1.47.962-.396.452-.736.905-.962 1.527a4.99 4.99 0 0 0-.339 1.867 5.51 5.51 0 0 0 .339 1.923c.226.566.566 1.018.962 1.414.396.453.905.735 1.47.962a4.99 4.99 0 0 0 1.867.339h9.786v4.978h-9.39zm26.756 0v-7.467h-7.524v-4.695h7.524v-7.07H140v19.232h-5.147zm-14.481 0v-19.232h5.204v19.232h-5.204z"/></svg>