<svg xmlns="http://www.w3.org/2000/svg" width="103" height="140" fill="#828a99" xmlns:v="https://vecta.io/nano"><path d="M16.115 121.929c0 .145-.048.251-.135.328-.087.086-.202.125-.347.125h-2.805c-.125 0-.231-.048-.318-.135a.66.66 0 0 1-.183-.318l-1.224-5.031H5.012l-1.224 5.031a.66.66 0 0 1-.183.318c-.087.087-.193.135-.318.135H.482c-.145 0-.26-.039-.347-.125-.087-.077-.135-.183-.135-.328 0-.019.01-.039.01-.048a.19.19 0 0 0 .019-.087l4.347-16.616c.154-.617.386-1.098.684-1.455.299-.347.626-.617.973-.81a3.29 3.29 0 0 1 1.06-.356 7.45 7.45 0 0 1 .964-.077 7.45 7.45 0 0 1 .964.077c.366.058.723.173 1.06.356.347.193.665.463.973.81.299.357.53.838.684 1.455l4.347 16.616c0 .039.01.067.01.087.01.009.019.029.019.048zm-7.633-15.922c-.039-.164-.077-.27-.135-.337-.048-.058-.145-.087-.289-.087s-.241.029-.289.087c-.058.067-.096.173-.135.337l-1.908 7.865h4.665l-1.908-7.865zm20.75 15.662c0 .192-.038.327-.116.395-.087.067-.222.125-.415.154-.193.058-.472.106-.838.145l-1.176.125-1.301.077-1.195.029c-.858 0-1.667-.068-2.409-.212s-1.388-.415-1.928-.81c-.549-.395-.983-.954-1.301-1.657s-.482-1.62-.482-2.757v-13.936c0-.145.058-.27.164-.376a.5.5 0 0 1 .366-.154h2.622a.51.51 0 0 1 .376.154c.106.106.164.231.164.376v13.936c0 .887.145 1.484.443 1.802s.838.482 1.619.482h4.877a.49.49 0 0 1 .366.155c.106.106.164.231.164.375v1.697zm6.197.183a.49.49 0 0 1-.154.366.52.52 0 0 1-.376.164h-2.622c-.145 0-.26-.058-.366-.164s-.164-.222-.164-.366v-18.659a.48.48 0 0 1 .164-.357.52.52 0 0 1 .366-.144h2.622a.54.54 0 0 1 .376.144.47.47 0 0 1 .154.357v18.659zm18.601.077c0 .145-.038.251-.125.328-.087.086-.202.125-.347.125h-2.814a.43.43 0 0 1-.308-.135.68.68 0 0 1-.193-.318l-1.214-5.031h-6.101l-1.214 5.031a.75.75 0 0 1-.183.318.47.47 0 0 1-.318.135h-2.814a.5.5 0 0 1-.347-.125c-.087-.077-.125-.183-.125-.328 0-.019 0-.039.01-.048.01-.02.01-.048.01-.087l4.347-16.616c.164-.617.395-1.098.694-1.455.299-.347.617-.617.964-.81a3.45 3.45 0 0 1 1.06-.356 7.58 7.58 0 0 1 .974-.077c.279 0 .598.029.964.077a3.37 3.37 0 0 1 1.06.356c.347.193.665.463.964.81.299.357.53.838.694 1.455l4.347 16.616c0 .039 0 .067.01.087.01.009.01.029.01.048zm-7.624-15.922c-.038-.164-.087-.27-.135-.337-.058-.058-.154-.087-.289-.087-.145 0-.241.029-.299.087a.82.82 0 0 0-.125.337l-1.908 7.865h4.665l-1.908-7.865zm25.011 15.315c0 .299-.096.549-.299.752-.212.202-.463.308-.761.308h-2.679a3.02 3.02 0 0 1-.887-.125c-.27-.077-.511-.357-.723-.829l-5.889-12.905c-.068-.145-.145-.212-.231-.212-.096 0-.135.067-.135.212v13.329c0 .144-.048.26-.145.366a.48.48 0 0 1-.357.164h-2.255a.52.52 0 0 1-.376-.164.49.49 0 0 1-.154-.366v-18.1a.99.99 0 0 1 .308-.752c.202-.202.453-.308.752-.308h2.862c.279 0 .511.048.675.154s.328.337.492.694l6.168 13.618c.058.145.125.212.212.212.096 0 .135-.077.135-.241v-13.936a.44.44 0 0 1 .501-.501h2.284c.337 0 .501.164.501.501v18.129zm15.69.241c0 .192-.058.327-.164.404-.106.087-.241.145-.424.203a3.09 3.09 0 0 1-.54.116l-.945.134-1.243.116-1.455.058c-.79 0-1.638-.116-2.516-.347a6.18 6.18 0 0 1-2.419-1.253c-.733-.617-1.33-1.436-1.812-2.487-.482-1.04-.723-2.38-.723-4.019v-3.903c0-1.658.241-3.017.723-4.067s1.079-1.879 1.812-2.477 1.532-1.012 2.419-1.234a10.34 10.34 0 0 1 2.516-.327l1.455.048 1.243.125.945.145.54.106a1.08 1.08 0 0 1 .424.202c.106.077.164.212.164.405v1.773a.67.67 0 0 1-.116.405c-.087.106-.222.154-.414.154h-.058l-.829-.067-1.051-.068-1.137-.048-1.118-.029c-.559 0-1.079.087-1.542.251a2.82 2.82 0 0 0-1.205.829c-.337.376-.607.886-.8 1.522s-.289 1.417-.289 2.352v3.903c0 .916.096 1.687.289 2.323s.463 1.157.8 1.542a2.85 2.85 0 0 0 1.205.839c.463.164.983.25 1.542.25l1.118-.029 1.137-.057 1.051-.058.829-.068h.058c.193 0 .328.049.414.155a.66.66 0 0 1 .116.395v1.783zm14.92.106c0 .192-.039.327-.116.395-.087.067-.222.125-.414.154l-.704.125-.954.116-1.378.096-2.005.039c-.858 0-1.667-.068-2.41-.212s-1.397-.415-1.947-.81-.983-.954-1.301-1.657c-.328-.704-.482-1.62-.482-2.757v-9.243c0-1.137.154-2.052.482-2.756.318-.713.752-1.263 1.301-1.658s1.205-.665 1.947-.809 1.552-.212 2.41-.212l2.005.038 1.378.097.954.115.704.116c.192.038.327.096.414.164.077.067.116.202.116.395v1.696c0 .145-.058.27-.164.376a.49.49 0 0 1-.366.154H96.09c-.781 0-1.32.164-1.629.482s-.463.916-.463 1.802v2.863h7.181a.49.49 0 0 1 .366.154c.106.106.164.231.164.376v1.908c0 .135-.058.261-.164.367s-.222.163-.366.163h-7.181v3.412c0 .887.154 1.484.463 1.802s.848.482 1.629.482h5.407a.49.49 0 0 1 .366.155c.106.106.164.231.164.375v1.697zM9.85 131.23c0 .742-.135 1.368-.395 1.869a3.5 3.5 0 0 1-1.07 1.234 4.5 4.5 0 0 1-1.552.655c-.588.126-1.205.193-1.86.193a12.06 12.06 0 0 1-.781-.029l-.732-.038v4.414c0 .086-.029.164-.087.231-.067.068-.145.106-.231.106H1.455c-.096 0-.173-.038-.241-.106s-.106-.145-.106-.231v-11.633c0-.164.048-.289.145-.357.096-.077.231-.125.405-.144l1.523-.164 1.793-.058a8.91 8.91 0 0 1 1.86.183c.588.125 1.108.337 1.552.646a3.32 3.32 0 0 1 1.07 1.205c.26.501.395 1.127.395 1.869v.155zm-2.352-.164c0-.714-.212-1.215-.636-1.513-.414-.309-1.051-.453-1.899-.453l-.347.009-.424.019-.414.01-.318.029v4.038l.318.01.434.019.443.01.308.009c.916 0 1.561-.163 1.957-.51.386-.338.578-.848.578-1.523v-.154zm13.32 8.597c0 .135-.067.202-.202.202h-2.062c-.087 0-.164-.038-.202-.106-.048-.067-.096-.145-.135-.231l-2.438-4.501h-.231c-.231 0-.482-.01-.781-.019l-.723-.049v4.569c0 .086-.039.164-.096.231a.29.29 0 0 1-.231.106H12.03a.32.32 0 0 1-.231-.106c-.067-.068-.106-.145-.106-.231v-11.633c0-.164.048-.289.145-.357a.77.77 0 0 1 .395-.144l1.523-.164 1.802-.058a8.9 8.9 0 0 1 1.86.193c.588.135 1.099.347 1.542.636a3.07 3.07 0 0 1 1.07 1.176c.27.491.395 1.089.395 1.812v.154c0 .906-.202 1.629-.617 2.197a3.69 3.69 0 0 1-1.677 1.253l2.65 4.935c.029.029.038.077.038.135zm-2.737-8.674c0-.637-.212-1.099-.636-1.379-.424-.289-1.06-.424-1.899-.424l-.347.01-.434.01-.414.019-.308.029v3.797l.308.01.443.019.434.019h.318c.877 0 1.523-.135 1.928-.414.405-.289.607-.8.607-1.542v-.154zm13.58 3.739c0 .935-.116 1.735-.357 2.4-.251.665-.578 1.205-1.002 1.629a4.01 4.01 0 0 1-1.523.935c-.588.203-1.224.308-1.928.308-.694 0-1.33-.106-1.918-.308s-1.089-.511-1.523-.935c-.424-.424-.752-.964-1.002-1.629-.241-.665-.357-1.465-.357-2.4v-2.284c0-.925.116-1.725.357-2.39.251-.675.578-1.215 1.002-1.639a4.01 4.01 0 0 1 1.523-.935c.588-.203 1.224-.308 1.918-.308a5.87 5.87 0 0 1 1.928.308c.588.202 1.089.511 1.523.935.424.424.752.964 1.002 1.639.241.665.357 1.465.357 2.39v2.284zm-2.342-2.284c0-1.128-.202-1.947-.607-2.458-.395-.511-1.022-.771-1.86-.771-.829 0-1.455.26-1.851.771-.405.511-.607 1.33-.607 2.458v2.284c0 1.128.202 1.947.607 2.458.395.511 1.022.771 1.851.771.838 0 1.465-.26 1.86-.771.405-.511.607-1.33.607-2.458v-2.284zm13.647 2.38c0 1.677-.453 2.959-1.378 3.846-.916.887-2.226 1.33-3.932 1.33-.308 0-.626-.01-.964-.019l-.964-.048-.838-.068-.569-.067c-.154-.029-.26-.078-.337-.155-.067-.077-.106-.202-.106-.375v-11.373c0-.164.038-.289.106-.366.077-.078.183-.135.337-.155l.569-.067.838-.068.964-.048.964-.019c1.706 0 3.017.443 3.932 1.33.925.877 1.378 2.159 1.378 3.846v2.476zm-2.342-2.476c0-.627-.077-1.157-.231-1.562-.154-.414-.366-.742-.626-.983a2.26 2.26 0 0 0-.945-.511 4.64 4.64 0 0 0-1.176-.144l-.81.019-.607.029v8.79l.607.038.81.01a4.6 4.6 0 0 0 1.176-.145 2.13 2.13 0 0 0 .945-.501 2.59 2.59 0 0 0 .627-.983c.155-.414.231-.935.231-1.571v-2.486zm13.734 2.872c0 .896-.116 1.648-.347 2.255-.231.617-.549 1.099-.964 1.474a3.66 3.66 0 0 1-1.475.8 6.67 6.67 0 0 1-1.86.251c-.675 0-1.301-.087-1.87-.251a3.66 3.66 0 0 1-1.475-.8c-.405-.375-.723-.857-.954-1.474-.231-.607-.347-1.359-.347-2.255v-7.595a.28.28 0 0 1 .096-.222.32.32 0 0 1 .241-.096h1.667a.32.32 0 0 1 .241.096.28.28 0 0 1 .096.222v7.604a6.87 6.87 0 0 0 .106 1.263c.067.347.183.646.366.886.173.241.405.415.694.521.299.116.675.173 1.137.173.443 0 .819-.057 1.118-.173.299-.106.54-.28.713-.521s.299-.539.366-.886a6.99 6.99 0 0 0 .096-1.263v-7.604c0-.087.038-.164.106-.222.067-.067.145-.096.231-.096h1.677c.087 0 .164.029.231.096a.29.29 0 0 1 .106.222v7.595zm9.917 4.115c0 .125-.029.212-.096.27a1.08 1.08 0 0 1-.28.125l-.337.077-.607.077-.79.077a9.54 9.54 0 0 1-.935.039c-.501 0-1.041-.077-1.6-.222-.569-.144-1.079-.414-1.542-.8-.463-.395-.848-.915-1.157-1.58s-.463-1.523-.463-2.574v-2.476c0-1.061.154-1.928.463-2.603.308-.665.694-1.195 1.157-1.58a3.97 3.97 0 0 1 1.542-.781c.559-.145 1.099-.212 1.6-.212l.935.039.79.067.607.096.337.068a1.08 1.08 0 0 1 .28.125c.067.048.096.145.096.26v1.138a.43.43 0 0 1-.077.25c-.048.067-.135.106-.26.106h-.039l-.53-.048-.665-.039-.723-.038-.713-.01a2.98 2.98 0 0 0-.993.154 1.83 1.83 0 0 0-.761.531c-.222.241-.386.559-.511.963-.125.415-.183.916-.183 1.514v2.476c0 .588.058 1.08.183 1.494.125.405.289.733.511.974a1.74 1.74 0 0 0 .761.53c.299.115.636.164.993.164l.713-.02.723-.029.665-.048.53-.038h.039c.125 0 .212.038.26.106a.41.41 0 0 1 .077.25v1.128zm10.139-10.37c0 .086-.038.163-.106.221s-.144.077-.231.077h-2.959v10.265c0 .086-.029.164-.096.231s-.154.106-.241.106h-1.677a.32.32 0 0 1-.231-.106c-.067-.068-.106-.145-.106-.231v-10.265h-2.949c-.096 0-.174-.019-.241-.077a.28.28 0 0 1-.096-.221v-1.34a.28.28 0 0 1 .096-.222.32.32 0 0 1 .241-.096h8.26c.087 0 .164.029.231.096.068.058.106.135.106.222v1.34zm4.038 10.563c0 .086-.038.164-.106.231s-.145.106-.231.106h-1.677a.32.32 0 0 1-.231-.106c-.067-.068-.106-.145-.106-.231v-11.903c0-.087.038-.164.106-.222.067-.067.145-.096.231-.096h1.677c.087 0 .164.029.231.096a.29.29 0 0 1 .106.222v11.903zm11.807-4.8c0 .935-.116 1.735-.357 2.4s-.578 1.205-1.002 1.629a4.01 4.01 0 0 1-1.523.935c-.588.203-1.224.308-1.918.308a5.87 5.87 0 0 1-1.928-.308 3.97 3.97 0 0 1-1.513-.935c-.434-.424-.761-.964-1.002-1.629s-.366-1.465-.366-2.4v-2.284c0-.925.125-1.725.366-2.39.241-.675.569-1.215 1.002-1.639a3.97 3.97 0 0 1 1.513-.935 5.87 5.87 0 0 1 1.928-.308c.694 0 1.33.106 1.918.308s1.089.511 1.523.935c.424.424.761.964 1.002 1.639.241.665.357 1.465.357 2.39v2.284zm-2.342-2.284c0-1.128-.202-1.947-.607-2.458-.395-.511-1.022-.771-1.85-.771-.838 0-1.455.26-1.86.771s-.598 1.33-.598 2.458v2.284c0 1.128.193 1.947.598 2.458s1.022.771 1.86.771c.829 0 1.455-.26 1.85-.771.405-.511.607-1.33.607-2.458v-2.284zm14.052 6.746c0 .184-.058.347-.193.482-.125.126-.289.193-.482.193h-1.706a2.07 2.07 0 0 1-.559-.077c-.183-.048-.337-.231-.472-.53l-3.749-8.231c-.048-.096-.096-.135-.154-.135s-.077.039-.077.135v8.501c0 .086-.038.164-.096.231-.067.068-.135.106-.231.106h-1.436a.32.32 0 0 1-.231-.106c-.067-.068-.106-.145-.106-.231v-11.546c0-.193.067-.347.193-.482.135-.126.289-.193.482-.193h1.831c.174 0 .318.038.424.106s.212.212.318.434l3.932 8.683c.038.097.077.135.135.135s.087-.048.087-.144v-8.896c0-.212.106-.318.319-.318h1.455c.212 0 .318.106.318.318v11.565z"/><path d="M50.946 9.879c4.626 0 9.04.906 13.069 2.554v31.583c0 7.161-5.802 12.963-12.963 12.963-3.046 0-5.841-1.05-8.057-2.805v11.479c2.506.935 5.224 1.446 8.057 1.446 14.081 0 23.131-11.122 23.131-24.606V6.573A44.15 44.15 0 0 0 50.946 0C26.437 0 6.573 19.864 6.573 44.373c0 13.994 6.477 26.475 16.596 34.61V64.844a34.39 34.39 0 0 1-6.727-20.471c0-19.054 15.45-34.494 34.504-34.494zm.135 69.017c-4.626 0-9.04-.906-13.069-2.564V44.749a12.97 12.97 0 0 1 12.963-12.963c3.046 0 5.841 1.051 8.057 2.814V23.121c-2.506-.935-5.224-1.446-8.057-1.446-14.081 0-23.141 11.113-23.141 24.606v35.921a44.22 44.22 0 0 0 23.247 6.573c24.509 0 44.373-19.873 44.373-44.373 0-13.994-6.477-26.475-16.606-34.61v14.139c4.231 5.725 6.727 12.809 6.727 20.471 0 19.054-15.44 34.494-34.494 34.494z" fill-rule="evenodd"/></svg>